<svg width="32" height="33" viewBox="0 0 32 33" fill="none" xmlns="http://www.w3.org/2000/svg">
<g clip-path="url(#clip0_63_1719)">
<path d="M16 30.3125C12.287 30.3125 8.72601 28.8375 6.1005 26.212C3.475 23.5865 2 20.0255 2 16.3125C2 12.5995 3.475 9.03851 6.1005 6.413C8.72601 3.7875 12.287 2.3125 16 2.3125C19.713 2.3125 23.274 3.7875 25.8995 6.413C28.525 9.03851 30 12.5995 30 16.3125C30 20.0255 28.525 23.5865 25.8995 26.212C23.274 28.8375 19.713 30.3125 16 30.3125ZM16 32.3125C20.2435 32.3125 24.3131 30.6268 27.3137 27.6262C30.3143 24.6256 32 20.556 32 16.3125C32 12.069 30.3143 7.99937 27.3137 4.99879C24.3131 1.99821 20.2435 0.3125 16 0.3125C11.7565 0.3125 7.68687 1.99821 4.68629 4.99879C1.68571 7.99937 0 12.069 0 16.3125C0 20.556 1.68571 24.6256 4.68629 27.6262C7.68687 30.6268 11.7565 32.3125 16 32.3125Z" fill="#0E7490"/>
<path d="M21.9397 10.2526L21.8997 10.2966L14.9537 19.1466L10.7677 14.9586C10.4834 14.6936 10.1073 14.5494 9.71866 14.5562C9.33005 14.5631 8.95928 14.7205 8.68446 14.9953C8.40963 15.2702 8.25221 15.6409 8.24535 16.0295C8.23849 16.4181 8.38274 16.7942 8.6477 17.0786L13.9397 22.3726C14.0823 22.5149 14.252 22.627 14.4389 22.7023C14.6257 22.7776 14.8258 22.8144 15.0272 22.8107C15.2286 22.807 15.4272 22.7627 15.6111 22.6806C15.795 22.5984 15.9605 22.4801 16.0977 22.3326L24.0817 12.3526C24.3536 12.0672 24.5022 11.6864 24.4955 11.2923C24.4888 10.8983 24.3272 10.5227 24.0458 10.2468C23.7644 9.97085 23.3857 9.81679 22.9916 9.81788C22.5975 9.81896 22.2196 9.97512 21.9397 10.2526Z" fill="#0E7490"/>
</g>
<defs>
<clipPath id="clip0_63_1719">
<rect width="32" height="32" fill="white" transform="translate(0 0.3125)"/>
</clipPath>
</defs>
</svg>
