<svg width="600" height="96" viewBox="0 0 600 96" fill="none" xmlns="http://www.w3.org/2000/svg">
<path d="M284 3C284 2.73478 284.105 2.48043 284.293 2.29289C284.48 2.10536 284.735 2 285 2H288C288.223 2.00006 288.44 2.0747 288.615 2.21205C288.791 2.3494 288.916 2.54157 288.97 2.758L289.78 6H313C313.147 6.00014 313.292 6.03261 313.425 6.0951C313.558 6.1576 313.675 6.24859 313.769 6.36161C313.863 6.47463 313.93 6.6069 313.967 6.74904C314.004 6.89117 314.009 7.03967 313.982 7.184L310.982 23.184C310.939 23.4132 310.817 23.6201 310.638 23.7691C310.459 23.9181 310.233 23.9998 310 24H292C291.767 23.9998 291.541 23.9181 291.362 23.7691C291.183 23.6201 291.061 23.4132 291.018 23.184L288.02 7.214L287.22 4H285C284.735 4 284.48 3.89464 284.293 3.70711C284.105 3.51957 284 3.26522 284 3ZM294 24C292.939 24 291.922 24.4214 291.172 25.1716C290.421 25.9217 290 26.9391 290 28C290 29.0609 290.421 30.0783 291.172 30.8284C291.922 31.5786 292.939 32 294 32C295.061 32 296.078 31.5786 296.828 30.8284C297.579 30.0783 298 29.0609 298 28C298 26.9391 297.579 25.9217 296.828 25.1716C296.078 24.4214 295.061 24 294 24ZM308 24C306.939 24 305.922 24.4214 305.172 25.1716C304.421 25.9217 304 26.9391 304 28C304 29.0609 304.421 30.0783 305.172 30.8284C305.922 31.5786 306.939 32 308 32C309.061 32 310.078 31.5786 310.828 30.8284C311.579 30.0783 312 29.0609 312 28C312 26.9391 311.579 25.9217 310.828 25.1716C310.078 24.4214 309.061 24 308 24ZM294 26C294.53 26 295.039 26.2107 295.414 26.5858C295.789 26.9609 296 27.4696 296 28C296 28.5304 295.789 29.0391 295.414 29.4142C295.039 29.7893 294.53 30 294 30C293.47 30 292.961 29.7893 292.586 29.4142C292.211 29.0391 292 28.5304 292 28C292 27.4696 292.211 26.9609 292.586 26.5858C292.961 26.2107 293.47 26 294 26ZM308 26C308.53 26 309.039 26.2107 309.414 26.5858C309.789 26.9609 310 27.4696 310 28C310 28.5304 309.789 29.0391 309.414 29.4142C309.039 29.7893 308.53 30 308 30C307.47 30 306.961 29.7893 306.586 29.4142C306.211 29.0391 306 28.5304 306 28C306 27.4696 306.211 26.9609 306.586 26.5858C306.961 26.2107 307.47 26 308 26Z" fill="#FAFAFA"/>
<path d="M53.516 92.576C50.604 92.576 48.3 92.064 46.604 91.04C44.908 90.016 43.692 88.544 42.956 86.624C42.22 84.704 41.852 82.416 41.852 79.76V65.312C41.852 62.624 42.22 60.336 42.956 58.448C43.692 56.56 44.908 55.12 46.604 54.128C48.3 53.104 50.604 52.592 53.516 52.592C56.46 52.592 58.78 53.104 60.476 54.128C62.204 55.12 63.436 56.56 64.172 58.448C64.908 60.336 65.276 62.624 65.276 65.312V79.76C65.276 82.416 64.908 84.704 64.172 86.624C63.436 88.544 62.204 90.016 60.476 91.04C58.78 92.064 56.46 92.576 53.516 92.576ZM53.516 86.48C54.412 86.48 55.068 86.256 55.484 85.808C55.9 85.36 56.172 84.784 56.3 84.08C56.428 83.376 56.492 82.656 56.492 81.92V63.2C56.492 62.432 56.428 61.712 56.3 61.04C56.172 60.336 55.9 59.76 55.484 59.312C55.068 58.864 54.412 58.64 53.516 58.64C52.684 58.64 52.06 58.864 51.644 59.312C51.228 59.76 50.956 60.336 50.828 61.04C50.7 61.712 50.636 62.432 50.636 63.2V81.92C50.636 82.656 50.684 83.376 50.78 84.08C50.908 84.784 51.164 85.36 51.548 85.808C51.964 86.256 52.62 86.48 53.516 86.48ZM69.545 92V53.12H80.249C82.873 53.12 85.145 53.408 87.065 53.984C88.985 54.56 90.473 55.6 91.529 57.104C92.617 58.576 93.161 60.672 93.161 63.392C93.161 64.992 93.033 66.416 92.777 67.664C92.521 68.912 92.041 70 91.337 70.928C90.665 71.824 89.689 72.576 88.409 73.184L93.737 92H84.857L80.585 74.576H78.137V92H69.545ZM78.137 69.632H80.537C81.753 69.632 82.697 69.424 83.369 69.008C84.041 68.56 84.505 67.936 84.761 67.136C85.049 66.304 85.193 65.312 85.193 64.16C85.193 62.496 84.889 61.2 84.281 60.272C83.673 59.344 82.553 58.88 80.921 58.88H78.137V69.632ZM97.3663 92V53.12H107.206C110.598 53.12 113.238 53.552 115.126 54.416C117.014 55.248 118.342 56.576 119.11 58.4C119.878 60.192 120.262 62.528 120.262 65.408V79.52C120.262 82.432 119.878 84.816 119.11 86.672C118.342 88.496 117.014 89.84 115.126 90.704C113.27 91.568 110.662 92 107.302 92H97.3663ZM105.958 86.048H107.302C108.614 86.048 109.558 85.856 110.134 85.472C110.71 85.088 111.062 84.512 111.19 83.744C111.35 82.976 111.43 82.016 111.43 80.864V63.92C111.43 62.768 111.334 61.84 111.142 61.136C110.982 60.432 110.614 59.92 110.038 59.6C109.462 59.28 108.534 59.12 107.254 59.12H105.958V86.048ZM124.531 92V53.12H142.003V58.976H133.123V68.624H139.891V74.576H133.123V86.192H142.099V92H124.531ZM145.04 92V53.12H155.744C158.368 53.12 160.64 53.408 162.56 53.984C164.48 54.56 165.968 55.6 167.024 57.104C168.112 58.576 168.656 60.672 168.656 63.392C168.656 64.992 168.528 66.416 168.272 67.664C168.016 68.912 167.536 70 166.832 70.928C166.16 71.824 165.184 72.576 163.904 73.184L169.232 92H160.352L156.08 74.576H153.632V92H145.04ZM153.632 69.632H156.032C157.248 69.632 158.192 69.424 158.864 69.008C159.536 68.56 160 67.936 160.256 67.136C160.544 66.304 160.688 65.312 160.688 64.16C160.688 62.496 160.384 61.2 159.776 60.272C159.168 59.344 158.048 58.88 156.416 58.88H153.632V69.632ZM195.415 92.576C192.439 92.576 190.103 92.096 188.407 91.136C186.743 90.144 185.575 88.72 184.903 86.864C184.231 84.976 183.895 82.672 183.895 79.952V53.12H192.391V81.248C192.391 82.048 192.455 82.848 192.583 83.648C192.711 84.448 192.983 85.104 193.399 85.616C193.847 86.128 194.519 86.384 195.415 86.384C196.343 86.384 197.015 86.128 197.431 85.616C197.847 85.104 198.103 84.448 198.199 83.648C198.327 82.848 198.391 82.048 198.391 81.248V53.12H206.935V79.952C206.935 82.672 206.583 84.976 205.879 86.864C205.207 88.72 204.039 90.144 202.375 91.136C200.711 92.096 198.391 92.576 195.415 92.576ZM211.441 92V53.12H220.033V86.192H228.961V92H211.441ZM231.938 92V59.504H226.082V53.12H246.386V59.504H240.578V92H231.938ZM248.849 92V53.12H259.553C262.177 53.12 264.449 53.408 266.369 53.984C268.289 54.56 269.777 55.6 270.833 57.104C271.921 58.576 272.465 60.672 272.465 63.392C272.465 64.992 272.337 66.416 272.081 67.664C271.825 68.912 271.345 70 270.641 70.928C269.969 71.824 268.993 72.576 267.713 73.184L273.041 92H264.161L259.889 74.576H257.441V92H248.849ZM257.441 69.632H259.841C261.057 69.632 262.001 69.424 262.673 69.008C263.345 68.56 263.809 67.936 264.065 67.136C264.353 66.304 264.497 65.312 264.497 64.16C264.497 62.496 264.193 61.2 263.585 60.272C262.977 59.344 261.857 58.88 260.225 58.88H257.441V69.632ZM274.799 92L282.143 53.12H291.935L299.183 92H291.263L289.967 83.792H284.255L282.911 92H274.799ZM285.023 78.656H289.151L287.087 63.488L285.023 78.656ZM302.004 92L302.676 53.12H311.892L316.164 75.728L320.772 53.12H329.652L330.324 92H324.228L323.508 66.128L318.996 92H313.572L308.772 65.936L308.196 92H302.004ZM333.113 92L340.457 53.12H350.249L357.497 92H349.577L348.281 83.792H342.569L341.225 92H333.113ZM343.337 78.656H347.465L345.401 63.488L343.337 78.656ZM360.462 92V53.12H366.51L374.478 71.84V53.12H381.582V92H375.774L367.806 71.84V92H360.462ZM386.457 92V53.12H395.049V92H386.457ZM397.342 92L404.878 71.072L397.678 53.12H405.79L410.062 63.632L413.518 53.12H420.67L413.854 73.328L421.438 92H413.374L408.622 80.384L404.446 92H397.342ZM434.951 92V53.12H445.079C446.743 53.12 448.311 53.248 449.783 53.504C451.287 53.76 452.615 54.256 453.767 54.992C454.919 55.696 455.815 56.72 456.455 58.064C457.127 59.376 457.463 61.12 457.463 63.296C457.463 64.864 457.223 66.192 456.743 67.28C456.295 68.336 455.639 69.184 454.775 69.824C453.943 70.464 452.935 70.896 451.751 71.12C453.255 71.312 454.519 71.808 455.543 72.608C456.567 73.376 457.335 74.416 457.847 75.728C458.391 77.04 458.663 78.624 458.663 80.48C458.663 82.496 458.391 84.24 457.847 85.712C457.335 87.152 456.583 88.336 455.591 89.264C454.599 90.192 453.367 90.88 451.895 91.328C450.455 91.776 448.791 92 446.903 92H434.951ZM443.543 86H445.367C447.255 86 448.551 85.52 449.255 84.56C449.991 83.6 450.359 82.192 450.359 80.336C450.359 78.864 450.199 77.696 449.879 76.832C449.559 75.968 449.031 75.344 448.295 74.96C447.559 74.544 446.567 74.336 445.319 74.336H443.543V86ZM443.543 68.672H445.223C446.535 68.672 447.527 68.48 448.199 68.096C448.871 67.68 449.319 67.088 449.543 66.32C449.799 65.552 449.927 64.624 449.927 63.536C449.927 62.512 449.735 61.664 449.351 60.992C448.999 60.288 448.455 59.76 447.719 59.408C447.015 59.056 446.119 58.88 445.031 58.88H443.543V68.672ZM462.209 92V53.12H479.681V58.976H470.801V68.624H477.569V74.576H470.801V86.192H479.777V92H462.209ZM482.718 92V53.12H491.31V86.192H500.238V92H482.718ZM513.566 92.576C510.654 92.576 508.35 92.064 506.654 91.04C504.958 90.016 503.742 88.544 503.006 86.624C502.27 84.704 501.902 82.416 501.902 79.76V65.312C501.902 62.624 502.27 60.336 503.006 58.448C503.742 56.56 504.958 55.12 506.654 54.128C508.35 53.104 510.654 52.592 513.566 52.592C516.51 52.592 518.83 53.104 520.526 54.128C522.254 55.12 523.486 56.56 524.222 58.448C524.958 60.336 525.326 62.624 525.326 65.312V79.76C525.326 82.416 524.958 84.704 524.222 86.624C523.486 88.544 522.254 90.016 520.526 91.04C518.83 92.064 516.51 92.576 513.566 92.576ZM513.566 86.48C514.462 86.48 515.118 86.256 515.534 85.808C515.95 85.36 516.222 84.784 516.35 84.08C516.478 83.376 516.542 82.656 516.542 81.92V63.2C516.542 62.432 516.478 61.712 516.35 61.04C516.222 60.336 515.95 59.76 515.534 59.312C515.118 58.864 514.462 58.64 513.566 58.64C512.734 58.64 512.11 58.864 511.694 59.312C511.278 59.76 511.006 60.336 510.878 61.04C510.75 61.712 510.686 62.432 510.686 63.2V81.92C510.686 82.656 510.734 83.376 510.83 84.08C510.958 84.784 511.214 85.36 511.598 85.808C512.014 86.256 512.67 86.48 513.566 86.48ZM532.715 92L528.011 53.12H535.307L537.611 75.776L540.539 53.168H546.251L549.323 75.632L551.675 53.12H558.875L554.219 92H546.731L543.419 68.528L540.299 92H532.715Z" fill="#FAFAFA"/>
</svg>
