<svg width="54" height="55" viewBox="0 0 54 55" fill="none" xmlns="http://www.w3.org/2000/svg">
<path d="M9.495 25.6656L25.4025 9.75808C30.69 4.49308 39.2175 4.49308 44.505 9.75808C49.77 15.0231 49.77 23.5731 44.505 28.8606L28.5975 44.7681C23.31 50.0331 14.76 50.0331 9.495 44.7681C4.23 39.4806 4.23 30.9531 9.495 25.6656ZM12.69 28.8606C10.3275 31.2006 9.54 34.5531 10.35 37.5456L23.8275 24.0906L33.3675 33.6306L41.31 25.6656C44.8425 22.1556 44.8425 16.4631 41.31 12.9531C37.8 9.42058 32.1075 9.42058 28.5975 12.9531L12.69 28.8606Z" fill="#0E7490"/>
</svg>
