<svg width="20" height="21" viewBox="0 0 20 21" fill="none" xmlns="http://www.w3.org/2000/svg">
<path d="M10 0.277344C4.5 0.277344 0 4.77734 0 10.2773C0 15.7773 4.5 20.2773 10 20.2773C15.5 20.2773 20 15.7773 20 10.2773C20 4.77734 15.5 0.277344 10 0.277344ZM10 18.2773C5.59 18.2773 2 14.6873 2 10.2773C2 5.86734 5.59 2.27734 10 2.27734C14.41 2.27734 18 5.86734 18 10.2773C18 14.6873 14.41 18.2773 10 18.2773ZM14.59 5.85734L8 12.4473L5.41 9.86734L4 11.2773L8 15.2773L16 7.27734L14.59 5.85734Z" fill="#FAFAFA"/>
</svg>
